<svg width="358" height="467" viewBox="0 0 358 467" fill="none" xmlns="http://www.w3.org/2000/svg">
<path d="M127.702 0L89.4346 47.2705L59.8906 3.09473V0H127.702ZM25 257.271L43.0078 283.438L66.0811 260.646H117.01L130.797 281.187L26.6885 388.109V431.441H162.311V399.646H60.4531V398.521L162.311 293.005V265.148L138.112 228.852H52.8564L25 257.271ZM203 265.993V431.441H237.047V347.592H296.417V315.796H237.047V276.685L247.176 266.274H327.649V234.479H233.951L203 265.993ZM299.23 66.9668V159.821L293.604 165.448H231.138V31.7949H275.313L299.23 66.9668ZM197.092 196.962H307.672L333.277 170.231V60.4951L292.759 0H358V467H0V0H25.8447V196.962H59.8906V53.7422L80.9941 85.2568V89.7588H105.474V72.0322L127.702 45.8643V196.962H161.748V0H197.092V196.962Z" fill="black"/>
</svg>
